<?xml version="1.0" standalone="yes"?>
<!-- SVG graphic -->
<svg xmlns='http://www.w3.org/2000/svg' xmlns:xlink='http://www.w3.org/1999/xlink'
 version="1.1">
<rect x="0" y="-1.52588e-05" width="6" height="200" stroke="black" stroke-width="1" fill="blue" tooltip="enable"><title>(0,50205)</title></rect><rect x="6" y="47.8757" width="6" height="152.124" stroke="black" stroke-width="1" fill="blue" tooltip="enable"><title>(0.153369,38187)</title></rect><rect x="12" y="79.4781" width="6" height="120.522" stroke="black" stroke-width="1" fill="blue" tooltip="enable"><title>(0.306737,30254)</title></rect><rect x="18" y="104.073" width="6" height="95.9267" stroke="black" stroke-width="1" fill="blue" tooltip="enable"><title>(0.460106,24080)</title></rect><rect x="24" y="122.326" width="6" height="77.6735" stroke="black" stroke-width="1" fill="blue" tooltip="enable"><title>(0.613474,19498)</title></rect><rect x="30" y="137.365" width="6" height="62.6352" stroke="black" stroke-width="1" fill="blue" tooltip="enable"><title>(0.766843,15723)</title></rect><rect x="36" y="147.694" width="6" height="52.3055" stroke="black" stroke-width="1" fill="blue" tooltip="enable"><title>(0.920211,13130)</title></rect><rect x="42" y="157.431" width="6" height="42.5695" stroke="black" stroke-width="1" fill="blue" tooltip="enable"><title>(1.07358,10686)</title></rect><rect x="48" y="163.605" width="6" height="36.3948" stroke="black" stroke-width="1" fill="blue" tooltip="enable"><title>(1.22695,9136)</title></rect><rect x="54" y="169.389" width="6" height="30.6105" stroke="black" stroke-width="1" fill="blue" tooltip="enable"><title>(1.38032,7684)</title></rect><rect x="60" y="174.823" width="6" height="25.1768" stroke="black" stroke-width="1" fill="blue" tooltip="enable"><title>(1.53369,6320)</title></rect><rect x="66" y="178.62" width="6" height="21.3803" stroke="black" stroke-width="1" fill="blue" tooltip="enable"><title>(1.68705,5367)</title></rect><rect x="72" y="181.603" width="6" height="18.3966" stroke="black" stroke-width="1" fill="blue" tooltip="enable"><title>(1.84042,4618)</title></rect><rect x="78" y="184.077" width="6" height="15.9227" stroke="black" stroke-width="1" fill="blue" tooltip="enable"><title>(1.99379,3997)</title></rect><rect x="84" y="186.009" width="6" height="13.9906" stroke="black" stroke-width="1" fill="blue" tooltip="enable"><title>(2.14716,3512)</title></rect><rect x="90" y="187.937" width="6" height="12.0625" stroke="black" stroke-width="1" fill="blue" tooltip="enable"><title>(2.30053,3028)</title></rect><rect x="96" y="189.093" width="6" height="10.9073" stroke="black" stroke-width="1" fill="blue" tooltip="enable"><title>(2.4539,2738)</title></rect><rect x="102" y="190.519" width="6" height="9.48113" stroke="black" stroke-width="1" fill="blue" tooltip="enable"><title>(2.60726,2380)</title></rect><rect x="108" y="191.658" width="6" height="8.3418" stroke="black" stroke-width="1" fill="blue" tooltip="enable"><title>(2.76063,2094)</title></rect><rect x="114" y="192.698" width="6" height="7.30206" stroke="black" stroke-width="1" fill="blue" tooltip="enable"><title>(2.914,1833)</title></rect><rect x="120" y="192.945" width="6" height="7.05507" stroke="black" stroke-width="1" fill="blue" tooltip="enable"><title>(3.06737,1771)</title></rect><rect x="126" y="194.375" width="6" height="5.62494" stroke="black" stroke-width="1" fill="blue" tooltip="enable"><title>(3.22074,1412)</title></rect><rect x="132" y="195.112" width="6" height="4.88796" stroke="black" stroke-width="1" fill="blue" tooltip="enable"><title>(3.37411,1227)</title></rect><rect x="138" y="195.73" width="6" height="4.27049" stroke="black" stroke-width="1" fill="blue" tooltip="enable"><title>(3.52748,1072)</title></rect><rect x="144" y="196.347" width="6" height="3.65302" stroke="black" stroke-width="1" fill="blue" tooltip="enable"><title>(3.68084,917)</title></rect><rect x="150" y="196.729" width="6" height="3.27059" stroke="black" stroke-width="1" fill="blue" tooltip="enable"><title>(3.83421,821)</title></rect><rect x="156" y="197.168" width="6" height="2.83239" stroke="black" stroke-width="1" fill="blue" tooltip="enable"><title>(3.98758,711)</title></rect><rect x="162" y="197.518" width="6" height="2.48182" stroke="black" stroke-width="1" fill="blue" tooltip="enable"><title>(4.14095,623)</title></rect><rect x="168" y="197.729" width="6" height="2.27069" stroke="black" stroke-width="1" fill="blue" tooltip="enable"><title>(4.29432,570)</title></rect><rect x="174" y="198.064" width="6" height="1.93606" stroke="black" stroke-width="1" fill="blue" tooltip="enable"><title>(4.44769,486)</title></rect><rect x="180" y="198.287" width="6" height="1.71298" stroke="black" stroke-width="1" fill="blue" tooltip="enable"><title>(4.60106,430)</title></rect><rect x="186" y="198.43" width="6" height="1.56956" stroke="black" stroke-width="1" fill="blue" tooltip="enable"><title>(4.75442,394)</title></rect><rect x="192" y="198.713" width="6" height="1.28672" stroke="black" stroke-width="1" fill="blue" tooltip="enable"><title>(4.90779,323)</title></rect><rect x="198" y="198.502" width="6" height="1.49786" stroke="black" stroke-width="1" fill="blue" tooltip="enable"><title>(5.06116,376)</title></rect><rect x="204" y="198.897" width="6" height="1.10348" stroke="black" stroke-width="1" fill="blue" tooltip="enable"><title>(5.21453,277)</title></rect><rect x="210" y="198.992" width="6" height="1.00787" stroke="black" stroke-width="1" fill="blue" tooltip="enable"><title>(5.3679,253)</title></rect><rect x="216" y="199.092" width="6" height="0.908276" stroke="black" stroke-width="1" fill="blue" tooltip="enable"><title>(5.52127,228)</title></rect><rect x="222" y="199.032" width="6" height="0.968031" stroke="black" stroke-width="1" fill="blue" tooltip="enable"><title>(5.67464,243)</title></rect><rect x="228" y="199.215" width="6" height="0.784782" stroke="black" stroke-width="1" fill="blue" tooltip="enable"><title>(5.828,197)</title></rect><rect x="234" y="199.116" width="6" height="0.884374" stroke="black" stroke-width="1" fill="blue" tooltip="enable"><title>(5.98137,222)</title></rect><rect x="240" y="199.367" width="6" height="0.633403" stroke="black" stroke-width="1" fill="blue" tooltip="enable"><title>(6.13474,159)</title></rect><rect x="246" y="199.498" width="6" height="0.501942" stroke="black" stroke-width="1" fill="blue" tooltip="enable"><title>(6.28811,126)</title></rect><rect x="252" y="199.526" width="6" height="0.474056" stroke="black" stroke-width="1" fill="blue" tooltip="enable"><title>(6.44148,119)</title></rect><rect x="258" y="199.554" width="6" height="0.446171" stroke="black" stroke-width="1" fill="blue" tooltip="enable"><title>(6.59485,112)</title></rect><rect x="264" y="199.641" width="6" height="0.35853" stroke="black" stroke-width="1" fill="blue" tooltip="enable"><title>(6.74822,90)</title></rect><rect x="270" y="199.681" width="6" height="0.318693" stroke="black" stroke-width="1" fill="blue" tooltip="enable"><title>(6.90158,80)</title></rect><rect x="276" y="199.761" width="6" height="0.23902" stroke="black" stroke-width="1" fill="blue" tooltip="enable"><title>(7.05495,60)</title></rect><rect x="282" y="199.781" width="6" height="0.219102" stroke="black" stroke-width="1" fill="blue" tooltip="enable"><title>(7.20832,55)</title></rect><rect x="288" y="199.849" width="6" height="0.151379" stroke="black" stroke-width="1" fill="blue" tooltip="enable"><title>(7.36169,38)</title></rect><rect x="294" y="199.845" width="6" height="0.155363" stroke="black" stroke-width="1" fill="blue" tooltip="enable"><title>(7.51506,39)</title></rect><rect x="300" y="199.837" width="6" height="0.16333" stroke="black" stroke-width="1" fill="blue" tooltip="enable"><title>(7.66843,41)</title></rect><rect x="306" y="199.825" width="6" height="0.175281" stroke="black" stroke-width="1" fill="blue" tooltip="enable"><title>(7.82179,44)</title></rect><rect x="312" y="199.888" width="6" height="0.111543" stroke="black" stroke-width="1" fill="blue" tooltip="enable"><title>(7.97516,28)</title></rect><rect x="318" y="199.884" width="6" height="0.115526" stroke="black" stroke-width="1" fill="blue" tooltip="enable"><title>(8.12853,29)</title></rect><rect x="324" y="199.928" width="6" height="0.071706" stroke="black" stroke-width="1" fill="blue" tooltip="enable"><title>(8.2819,18)</title></rect><rect x="330" y="199.884" width="6" height="0.115526" stroke="black" stroke-width="1" fill="blue" tooltip="enable"><title>(8.43527,29)</title></rect><rect x="336" y="199.892" width="6" height="0.107559" stroke="black" stroke-width="1" fill="blue" tooltip="enable"><title>(8.58864,27)</title></rect><rect x="342" y="199.936" width="6" height="0.0637387" stroke="black" stroke-width="1" fill="blue" tooltip="enable"><title>(8.74201,16)</title></rect><rect x="348" y="199.952" width="6" height="0.047804" stroke="black" stroke-width="1" fill="blue" tooltip="enable"><title>(8.89537,12)</title></rect><rect x="354" y="199.96" width="6" height="0.0398367" stroke="black" stroke-width="1" fill="blue" tooltip="enable"><title>(9.04874,10)</title></rect><rect x="360" y="199.968" width="6" height="0.0318693" stroke="black" stroke-width="1" fill="blue" tooltip="enable"><title>(9.20211,8)</title></rect><rect x="366" y="199.972" width="6" height="0.0278857" stroke="black" stroke-width="1" fill="blue" tooltip="enable"><title>(9.35548,7)</title></rect><rect x="372" y="199.976" width="6" height="0.023902" stroke="black" stroke-width="1" fill="blue" tooltip="enable"><title>(9.50885,6)</title></rect><rect x="378" y="199.988" width="6" height="0.011951" stroke="black" stroke-width="1" fill="blue" tooltip="enable"><title>(9.66222,3)</title></rect><rect x="384" y="199.988" width="6" height="0.011951" stroke="black" stroke-width="1" fill="blue" tooltip="enable"><title>(9.81559,3)</title></rect><rect x="390" y="199.996" width="6" height="0.00398367" stroke="black" stroke-width="1" fill="blue" tooltip="enable"><title>(9.96895,1)</title></rect><rect x="396" y="199.984" width="6" height="0.0159347" stroke="black" stroke-width="1" fill="blue" tooltip="enable"><title>(10.1223,4)</title></rect><rect x="402" y="200" width="6" height="0" stroke="black" stroke-width="1" fill="blue" tooltip="enable"><title>(10.2757,0)</title></rect><rect x="408" y="199.988" width="6" height="0.011951" stroke="black" stroke-width="1" fill="blue" tooltip="enable"><title>(10.4291,3)</title></rect><rect x="414" y="199.996" width="6" height="0.00398367" stroke="black" stroke-width="1" fill="blue" tooltip="enable"><title>(10.5824,1)</title></rect><rect x="420" y="199.984" width="6" height="0.0159347" stroke="black" stroke-width="1" fill="blue" tooltip="enable"><title>(10.7358,4)</title></rect><rect x="426" y="199.98" width="6" height="0.0199183" stroke="black" stroke-width="1" fill="blue" tooltip="enable"><title>(10.8892,5)</title></rect><rect x="432" y="199.996" width="6" height="0.00398367" stroke="black" stroke-width="1" fill="blue" tooltip="enable"><title>(11.0425,1)</title></rect><rect x="438" y="199.98" width="6" height="0.0199183" stroke="black" stroke-width="1" fill="blue" tooltip="enable"><title>(11.1959,5)</title></rect><rect x="444" y="199.992" width="6" height="0.00796733" stroke="black" stroke-width="1" fill="blue" tooltip="enable"><title>(11.3493,2)</title></rect><rect x="450" y="199.996" width="6" height="0.00398367" stroke="black" stroke-width="1" fill="blue" tooltip="enable"><title>(11.5026,1)</title></rect><rect x="456" y="200" width="6" height="0" stroke="black" stroke-width="1" fill="blue" tooltip="enable"><title>(11.656,0)</title></rect><rect x="462" y="200" width="6" height="0" stroke="black" stroke-width="1" fill="blue" tooltip="enable"><title>(11.8094,0)</title></rect><rect x="468" y="200" width="6" height="0" stroke="black" stroke-width="1" fill="blue" tooltip="enable"><title>(11.9627,0)</title></rect><rect x="474" y="200" width="6" height="0" stroke="black" stroke-width="1" fill="blue" tooltip="enable"><title>(12.1161,0)</title></rect><rect x="480" y="200" width="6" height="0" stroke="black" stroke-width="1" fill="blue" tooltip="enable"><title>(12.2695,0)</title></rect><rect x="486" y="200" width="6" height="0" stroke="black" stroke-width="1" fill="blue" tooltip="enable"><title>(12.4229,0)</title></rect><rect x="492" y="200" width="6" height="0" stroke="black" stroke-width="1" fill="blue" tooltip="enable"><title>(12.5762,0)</title></rect><rect x="498" y="200" width="6" height="0" stroke="black" stroke-width="1" fill="blue" tooltip="enable"><title>(12.7296,0)</title></rect><rect x="504" y="200" width="6" height="0" stroke="black" stroke-width="1" fill="blue" tooltip="enable"><title>(12.883,0)</title></rect><rect x="510" y="200" width="6" height="0" stroke="black" stroke-width="1" fill="blue" tooltip="enable"><title>(13.0363,0)</title></rect><rect x="516" y="200" width="6" height="0" stroke="black" stroke-width="1" fill="blue" tooltip="enable"><title>(13.1897,0)</title></rect><rect x="522" y="200" width="6" height="0" stroke="black" stroke-width="1" fill="blue" tooltip="enable"><title>(13.3431,0)</title></rect><rect x="528" y="200" width="6" height="0" stroke="black" stroke-width="1" fill="blue" tooltip="enable"><title>(13.4964,0)</title></rect><rect x="534" y="200" width="6" height="0" stroke="black" stroke-width="1" fill="blue" tooltip="enable"><title>(13.6498,0)</title></rect><rect x="540" y="200" width="6" height="0" stroke="black" stroke-width="1" fill="blue" tooltip="enable"><title>(13.8032,0)</title></rect><rect x="546" y="200" width="6" height="0" stroke="black" stroke-width="1" fill="blue" tooltip="enable"><title>(13.9565,0)</title></rect><rect x="552" y="200" width="6" height="0" stroke="black" stroke-width="1" fill="blue" tooltip="enable"><title>(14.1099,0)</title></rect><rect x="558" y="200" width="6" height="0" stroke="black" stroke-width="1" fill="blue" tooltip="enable"><title>(14.2633,0)</title></rect><rect x="564" y="200" width="6" height="0" stroke="black" stroke-width="1" fill="blue" tooltip="enable"><title>(14.4166,0)</title></rect><rect x="570" y="200" width="6" height="0" stroke="black" stroke-width="1" fill="blue" tooltip="enable"><title>(14.57,0)</title></rect><rect x="576" y="200" width="6" height="0" stroke="black" stroke-width="1" fill="blue" tooltip="enable"><title>(14.7234,0)</title></rect><rect x="582" y="200" width="6" height="0" stroke="black" stroke-width="1" fill="blue" tooltip="enable"><title>(14.8767,0)</title></rect><rect x="588" y="200" width="6" height="0" stroke="black" stroke-width="1" fill="blue" tooltip="enable"><title>(15.0301,0)</title></rect><rect x="594" y="199.996" width="6" height="0.00398367" stroke="black" stroke-width="1" fill="blue" tooltip="enable"><title>(15.1835,1)</title></rect><text x="30" y="240" font-size="20" fill="black">0</text>
<text x="600" y="240" font-size="20" fill="black">15.3369</text>
<polyline points="0,220,600,220" stroke="black" stroke-width="1" fill="none"/>
<text x="720" y="20" font-size="20" fill="black">50205</text>
<text x="720" y="200" font-size="20" fill="black">0</text>
<polyline points="660,0,660,200" stroke="black" stroke-width="1" fill="none"/>
</svg>